<svg width="371" height="32" viewBox="0 0 371 32" fill="none" xmlns="http://www.w3.org/2000/svg">
<rect opacity="0.7" x="0.5" y="0.5" width="203" height="31" rx="3.5" stroke="#CED0DA"/>
<path d="M17.432 20.168C19.266 20.168 20.4 19.286 21.142 18.194L19.952 17.564C19.462 18.348 18.538 18.922 17.432 18.922C15.542 18.922 14.086 17.424 14.086 15.338C14.086 13.238 15.542 11.754 17.432 11.754C18.538 11.754 19.462 12.328 19.952 13.112L21.142 12.482C20.414 11.39 19.266 10.508 17.432 10.508C14.772 10.508 12.644 12.468 12.644 15.338C12.644 18.208 14.772 20.168 17.432 20.168ZM26.682 20H27.942V15.436C27.942 13.714 26.696 13.07 25.226 13.07C24.134 13.07 23.21 13.434 22.454 14.176L23 15.044C23.602 14.442 24.26 14.148 25.03 14.148C25.996 14.148 26.682 14.652 26.682 15.492V16.612C26.164 16.01 25.38 15.716 24.47 15.716C23.336 15.716 22.118 16.388 22.118 17.928C22.118 19.412 23.35 20.168 24.47 20.168C25.38 20.168 26.15 19.846 26.682 19.258V20ZM26.682 18.516C26.304 19.02 25.646 19.286 24.946 19.286C24.036 19.286 23.392 18.74 23.392 17.942C23.392 17.144 24.036 16.598 24.946 16.598C25.646 16.598 26.304 16.864 26.682 17.368V18.516ZM31.8231 20.168C32.4811 20.168 32.8731 19.986 33.1391 19.734L32.8171 18.782C32.6911 18.922 32.4251 19.048 32.1311 19.048C31.6971 19.048 31.4731 18.698 31.4731 18.222V14.344H32.8451V13.238H31.4731V11.39H30.2131V13.238H29.0931V14.344H30.2131V18.502C30.2131 19.566 30.7591 20.168 31.8231 20.168ZM33.8204 16.612C33.8204 18.74 35.3044 20.168 37.3204 20.168C38.4124 20.168 39.3644 19.818 40.0364 19.16L39.4484 18.334C38.9444 18.852 38.1604 19.132 37.4464 19.132C36.0884 19.132 35.2484 18.18 35.1504 17.032H40.4984V16.724C40.4984 14.652 39.2384 13.07 37.2084 13.07C35.2344 13.07 33.8204 14.652 33.8204 16.612ZM37.2084 14.106C38.6364 14.106 39.2384 15.226 39.2664 16.122H35.1364C35.2064 15.198 35.8504 14.106 37.2084 14.106ZM42.0184 21.736C42.8304 22.506 43.6564 22.744 44.7904 22.744C46.4564 22.744 48.1504 22.058 48.1504 19.734V13.238H46.8904V14.218C46.3444 13.49 45.5464 13.07 44.6644 13.07C42.9144 13.07 41.6544 14.386 41.6544 16.556C41.6544 18.768 42.9144 20.056 44.6644 20.056C45.5744 20.056 46.3724 19.566 46.8904 18.894V19.776C46.8904 21.204 45.8404 21.708 44.7904 21.708C43.8664 21.708 43.1804 21.456 42.6204 20.812L42.0184 21.736ZM46.8904 17.928C46.5404 18.474 45.7704 18.936 45.0144 18.936C43.7544 18.936 42.9704 17.956 42.9704 16.556C42.9704 15.17 43.7544 14.19 45.0144 14.19C45.7704 14.19 46.5404 14.638 46.8904 15.184V17.928ZM53.1505 20.168C55.2645 20.168 56.5665 18.572 56.5665 16.612C56.5665 14.666 55.2645 13.07 53.1505 13.07C51.0505 13.07 49.7345 14.666 49.7345 16.612C49.7345 18.572 51.0505 20.168 53.1505 20.168ZM53.1505 19.048C51.8065 19.048 51.0505 17.9 51.0505 16.612C51.0505 15.338 51.8065 14.19 53.1505 14.19C54.5085 14.19 55.2505 15.338 55.2505 16.612C55.2505 17.9 54.5085 19.048 53.1505 19.048ZM58.1662 20H59.4262V15.296C59.7202 14.792 60.5742 14.316 61.2042 14.316C61.3722 14.316 61.5122 14.33 61.6382 14.358V13.084C60.7422 13.084 59.9442 13.602 59.4262 14.274V13.238H58.1662V20ZM63.5127 12.104C63.9607 12.104 64.3247 11.754 64.3247 11.306C64.3247 10.858 63.9607 10.494 63.5127 10.494C63.0787 10.494 62.7007 10.858 62.7007 11.306C62.7007 11.754 63.0787 12.104 63.5127 12.104ZM62.8967 20H64.1567V13.238H62.8967V20ZM65.7443 16.612C65.7443 18.74 67.2283 20.168 69.2443 20.168C70.3363 20.168 71.2883 19.818 71.9603 19.16L71.3723 18.334C70.8683 18.852 70.0843 19.132 69.3703 19.132C68.0123 19.132 67.1723 18.18 67.0743 17.032H72.4223V16.724C72.4223 14.652 71.1623 13.07 69.1323 13.07C67.1583 13.07 65.7443 14.652 65.7443 16.612ZM69.1323 14.106C70.5603 14.106 71.1623 15.226 71.1903 16.122H67.0603C67.1303 15.198 67.7743 14.106 69.1323 14.106ZM73.4102 19.118C74.0962 19.818 75.0902 20.168 76.2242 20.168C78.0022 20.168 78.9542 19.258 78.9542 18.096C78.9542 16.542 77.5542 16.22 76.3782 15.954C75.5382 15.758 74.8102 15.562 74.8102 14.974C74.8102 14.428 75.3422 14.092 76.1962 14.092C77.0502 14.092 77.8062 14.442 78.1982 14.918L78.7582 14.036C78.1842 13.49 77.3442 13.07 76.1822 13.07C74.5302 13.07 73.6062 13.994 73.6062 15.072C73.6062 16.528 74.9502 16.836 76.0982 17.102C76.9662 17.298 77.7362 17.522 77.7362 18.194C77.7362 18.768 77.2322 19.16 76.2802 19.16C75.3702 19.16 74.4742 18.698 74.0122 18.194L73.4102 19.118Z" fill="#9EA0A5"/>
<path d="M93.9418 20H95.2998V10.662H93.8998V17.662L88.8178 10.662H87.3758V20H88.7758V12.832L93.9418 20ZM100.338 20.168C102.452 20.168 103.754 18.572 103.754 16.612C103.754 14.666 102.452 13.07 100.338 13.07C98.238 13.07 96.922 14.666 96.922 16.612C96.922 18.572 98.238 20.168 100.338 20.168ZM100.338 19.048C98.994 19.048 98.238 17.9 98.238 16.612C98.238 15.338 98.994 14.19 100.338 14.19C101.696 14.19 102.438 15.338 102.438 16.612C102.438 17.9 101.696 19.048 100.338 19.048ZM109.918 20H111.178V15.254C111.178 13.826 110.436 13.07 109.008 13.07C107.958 13.07 107.062 13.644 106.614 14.19V13.238H105.354V20H106.614V15.17C106.978 14.666 107.692 14.19 108.476 14.19C109.344 14.19 109.918 14.554 109.918 15.674V20ZM112.754 16.612C112.754 18.74 114.238 20.168 116.254 20.168C117.346 20.168 118.298 19.818 118.97 19.16L118.382 18.334C117.878 18.852 117.094 19.132 116.38 19.132C115.022 19.132 114.182 18.18 114.084 17.032H119.432V16.724C119.432 14.652 118.172 13.07 116.142 13.07C114.168 13.07 112.754 14.652 112.754 16.612ZM116.142 14.106C117.57 14.106 118.172 15.226 118.2 16.122H114.07C114.14 15.198 114.784 14.106 116.142 14.106Z" fill="#3E3F42"/>
<path fill-rule="evenodd" clip-rule="evenodd" d="M190.998 15L187.943 18L185 15H190.998Z" fill="#9EA0A5"/>
<rect opacity="0.7" x="228.5" y="0.5" width="142" height="31" rx="3.5" stroke="#CED0DA"/>
<path d="M240.462 18.684C241.26 19.566 242.478 20.168 244.144 20.168C246.664 20.168 247.672 18.81 247.672 17.354C247.672 15.366 245.894 14.89 244.368 14.484C243.206 14.19 242.198 13.924 242.198 13.084C242.198 12.3 242.912 11.768 243.948 11.768C244.956 11.768 245.936 12.104 246.65 12.86L247.462 11.824C246.636 10.984 245.502 10.522 244.06 10.522C242.114 10.522 240.756 11.642 240.756 13.182C240.756 15.086 242.492 15.52 243.99 15.912C245.18 16.22 246.244 16.5 246.244 17.48C246.244 18.152 245.712 18.922 244.2 18.922C242.898 18.922 241.89 18.306 241.26 17.606L240.462 18.684ZM253.83 20H255.09V15.226C255.09 13.798 254.362 13.07 252.92 13.07C251.884 13.07 250.974 13.644 250.526 14.19V10.662H249.266V20H250.526V15.17C250.89 14.666 251.604 14.19 252.388 14.19C253.256 14.19 253.83 14.526 253.83 15.646V20ZM260.096 20.168C262.21 20.168 263.512 18.572 263.512 16.612C263.512 14.666 262.21 13.07 260.096 13.07C257.996 13.07 256.68 14.666 256.68 16.612C256.68 18.572 257.996 20.168 260.096 20.168ZM260.096 19.048C258.752 19.048 257.996 17.9 257.996 16.612C257.996 15.338 258.752 14.19 260.096 14.19C261.454 14.19 262.196 15.338 262.196 16.612C262.196 17.9 261.454 19.048 260.096 19.048ZM270.978 20H272.28L274.408 13.238H273.092L271.552 18.39L269.858 13.238H268.766L267.072 18.39L265.532 13.238H264.216L266.344 20H267.646L269.312 14.806L270.978 20ZM275.305 14.022C275.305 14.484 275.697 14.89 276.173 14.89C276.649 14.89 277.055 14.484 277.055 14.022C277.055 13.546 276.649 13.14 276.173 13.14C275.697 13.14 275.305 13.546 275.305 14.022ZM275.305 19.272C275.305 19.748 275.697 20.154 276.173 20.154C276.649 20.154 277.055 19.748 277.055 19.272C277.055 18.796 276.649 18.404 276.173 18.404C275.697 18.404 275.305 18.796 275.305 19.272Z" fill="#9EA0A5"/>
<path d="M291.841 20H293.381L289.671 10.662H287.921L284.211 20H285.751L286.507 18.068H291.085L291.841 20ZM288.789 11.88L290.679 16.822H286.913L288.789 11.88ZM294.473 20H295.733V10.662H294.473V20ZM297.74 20H299V10.662H297.74V20Z" fill="#3E3F42"/>
<path fill-rule="evenodd" clip-rule="evenodd" d="M357.998 15L354.943 18L352 15H357.998Z" fill="#9EA0A5"/>
</svg>
