<svg width="47" height="32" viewBox="0 0 47 32" fill="none" xmlns="http://www.w3.org/2000/svg">
<rect y="2" width="47" height="28" fill="white"/>
<path d="M4.55336 19.56C5.22836 20.46 6.54836 21.18 8.33336 21.18C10.6434 21.18 12.0984 19.965 12.0984 18.27C12.0984 16.725 10.7484 15.93 9.77336 15.84C10.8084 15.66 11.9484 14.88 11.9484 13.545C11.9484 11.865 10.4934 10.845 8.33336 10.845C6.66836 10.845 5.45336 11.52 4.68836 12.42L5.58836 13.515C6.30836 12.795 7.14836 12.405 8.16836 12.405C9.29336 12.405 10.1934 12.885 10.1934 13.815C10.1934 14.73 9.30836 15.135 8.13836 15.135C7.74836 15.135 7.16336 15.135 6.98336 15.12V16.695C7.13336 16.68 7.71836 16.68 8.13836 16.68C9.56336 16.68 10.3584 17.1 10.3584 18.09C10.3584 19.02 9.59336 19.62 8.27336 19.62C7.20836 19.62 6.14336 19.155 5.49836 18.405L4.55336 19.56Z" fill="#9EA0A5"/>
<g clip-path="url(#clip0)">
<path fill-rule="evenodd" clip-rule="evenodd" d="M30 25C34.9706 25 39 20.9706 39 16C39 11.0294 34.9706 7 30 7C25.0294 7 21 11.0294 21 16C21 20.9706 25.0294 25 30 25ZM30 28C36.6274 28 42 22.6274 42 16C42 9.37258 36.6274 4 30 4C23.3726 4 18 9.37258 18 16C18 22.6274 23.3726 28 30 28Z" fill="#9EA0A5"/>
<g clip-path="url(#clip1)">
<path d="M31.707 15.4927C31.3165 15.8832 30.6834 15.8832 30.2929 15.4927L28.007 13.2072C27.6164 12.8167 26.9833 12.8168 26.5928 13.2073L26.107 13.6931C25.7165 14.0836 25.7165 14.7168 26.107 15.1073L30.2928 19.2931C30.6833 19.6836 31.3165 19.6836 31.707 19.2931L42.2929 8.7072C42.6834 8.31672 42.6834 7.68364 42.293 7.2931L41.8071 6.80704C41.4166 6.41641 40.7833 6.41636 40.3928 6.80693L31.707 15.4927Z" fill="#9EA0A5"/>
<path fill-rule="evenodd" clip-rule="evenodd" d="M30.9998 11.9572L30.1281 11.0857C28.566 9.52382 26.0335 9.52393 24.4715 11.0859L23.9857 11.5718C22.4236 13.1339 22.4236 15.6665 23.9857 17.2286L28.1714 21.4144C29.7335 22.9765 32.2662 22.9765 33.8283 21.4144L44.4142 10.8285C45.9761 9.2666 45.9763 6.73428 44.4146 5.17211L43.9287 4.68605C42.3667 3.12354 39.8337 3.12334 38.2714 4.68561L30.9998 11.9572ZM30.2928 19.2931C30.6833 19.6836 31.3165 19.6836 31.707 19.2931L42.2929 8.7072C42.2929 8.70723 42.2929 8.70718 42.2929 8.7072C42.6833 8.31672 42.6834 7.68362 42.293 7.2931L41.8071 6.80704C41.4166 6.41641 40.7833 6.41636 40.3928 6.80693L31.707 15.4927C31.5188 15.6809 31.2741 15.7784 31.0275 15.7852C31.0091 15.7857 30.9907 15.7857 30.9723 15.7852C30.7257 15.7784 30.4811 15.6809 30.2929 15.4927L28.007 13.2073C27.6165 12.8168 26.9833 12.8168 26.5928 13.2073L26.107 13.6931C25.7165 14.0836 25.7165 14.7168 26.107 15.1073L30.2928 19.2931Z" fill="white"/>
</g>
</g>
<defs>
<clipPath id="clip0">
<rect width="32" height="32" fill="white" transform="translate(14)"/>
</clipPath>
<clipPath id="clip1">
<rect width="24" height="24" fill="white" transform="translate(23 1)"/>
</clipPath>
</defs>
</svg>
