<svg width="42" height="28" viewBox="0 0 42 28" fill="none" xmlns="http://www.w3.org/2000/svg">
<rect width="42" height="28" fill="white"/>
<circle cx="21" cy="14" r="12" fill="#EAEDF3"/>
<path d="M16.9516 17.6352C17.7616 18.5952 18.9466 19.1802 20.6716 19.1802C22.9066 19.1802 24.4816 17.8752 24.4816 15.7902C24.4816 13.7502 22.9666 12.5652 21.2866 12.5652C20.3266 12.5652 19.5016 12.9552 19.0216 13.4352V10.5402H23.8216V8.99524H17.2666V14.5902L18.5116 14.9502C19.1416 14.3502 19.8466 14.0802 20.7016 14.0802C21.9316 14.0802 22.7116 14.7852 22.7116 15.8652C22.7116 16.8402 21.9166 17.6202 20.6566 17.6202C19.5316 17.6202 18.6316 17.2002 17.9566 16.4352L16.9516 17.6352Z" fill="#9EA0A5"/>
</svg>
