<svg width="47" height="32" viewBox="0 0 47 32" fill="none" xmlns="http://www.w3.org/2000/svg">
<rect y="2" width="47" height="28" fill="white"/>
<path d="M4.78955 21H12.0346V19.455H7.59455C10.2796 17.43 11.9746 15.78 11.9746 13.935C11.9746 11.94 10.2796 10.845 8.34455 10.845C6.94955 10.845 5.53955 11.385 4.65455 12.45L5.67455 13.605C6.30455 12.885 7.20455 12.405 8.37455 12.405C9.28955 12.405 10.1896 12.885 10.1896 13.935C10.1896 15.375 8.67455 16.68 4.78955 19.62V21Z" fill="#9EA0A5"/>
<g clip-path="url(#clip0)">
<path fill-rule="evenodd" clip-rule="evenodd" d="M30 25C34.9706 25 39 20.9706 39 16C39 11.0294 34.9706 7 30 7C25.0294 7 21 11.0294 21 16C21 20.9706 25.0294 25 30 25ZM30 28C36.6274 28 42 22.6274 42 16C42 9.37258 36.6274 4 30 4C23.3726 4 18 9.37258 18 16C18 22.6274 23.3726 28 30 28Z" fill="#9EA0A5"/>
<g clip-path="url(#clip1)">
<path d="M31.707 15.4927C31.3165 15.8832 30.6834 15.8832 30.2929 15.4927L28.007 13.2072C27.6164 12.8167 26.9833 12.8168 26.5928 13.2073L26.107 13.6931C25.7165 14.0836 25.7165 14.7168 26.107 15.1073L30.2928 19.2931C30.6833 19.6836 31.3165 19.6836 31.707 19.2931L42.2929 8.7072C42.6834 8.31672 42.6834 7.68364 42.293 7.2931L41.8071 6.80704C41.4166 6.41641 40.7833 6.41636 40.3928 6.80693L31.707 15.4927Z" fill="#9EA0A5"/>
<path fill-rule="evenodd" clip-rule="evenodd" d="M30.9998 11.9572L30.1281 11.0857C28.566 9.52382 26.0335 9.52393 24.4715 11.0859L23.9857 11.5718C22.4236 13.1339 22.4236 15.6665 23.9857 17.2286L28.1714 21.4144C29.7335 22.9765 32.2662 22.9765 33.8283 21.4144L44.4142 10.8285C45.9761 9.2666 45.9763 6.73428 44.4146 5.17211L43.9287 4.68605C42.3667 3.12354 39.8337 3.12334 38.2714 4.68561L30.9998 11.9572ZM30.2928 19.2931C30.6833 19.6836 31.3165 19.6836 31.707 19.2931L42.2929 8.7072C42.2929 8.70723 42.2929 8.70718 42.2929 8.7072C42.6833 8.31672 42.6834 7.68362 42.293 7.2931L41.8071 6.80704C41.4166 6.41641 40.7833 6.41636 40.3928 6.80693L31.707 15.4927C31.5188 15.6809 31.2741 15.7784 31.0275 15.7852C31.0091 15.7857 30.9907 15.7857 30.9723 15.7852C30.7257 15.7784 30.4811 15.6809 30.2929 15.4927L28.007 13.2073C27.6165 12.8168 26.9833 12.8168 26.5928 13.2073L26.107 13.6931C25.7165 14.0836 25.7165 14.7168 26.107 15.1073L30.2928 19.2931Z" fill="white"/>
</g>
</g>
<defs>
<clipPath id="clip0">
<rect width="32" height="32" fill="white" transform="translate(14)"/>
</clipPath>
<clipPath id="clip1">
<rect width="24" height="24" fill="white" transform="translate(23 1)"/>
</clipPath>
</defs>
</svg>
