<svg width="47" height="32" viewBox="0 0 47 32" fill="none" xmlns="http://www.w3.org/2000/svg">
<rect y="2" width="47" height="28" fill="white"/>
<path d="M8.53088 21H10.2859V10.995H8.75588L5.87588 13.905L6.89588 14.97L8.53088 13.275V21Z" fill="#9EA0A5"/>
<g clip-path="url(#clip0)">
<path fill-rule="evenodd" clip-rule="evenodd" d="M30 25C34.9706 25 39 20.9706 39 16C39 11.0294 34.9706 7 30 7C25.0294 7 21 11.0294 21 16C21 20.9706 25.0294 25 30 25ZM30 28C36.6274 28 42 22.6274 42 16C42 9.37258 36.6274 4 30 4C23.3726 4 18 9.37258 18 16C18 22.6274 23.3726 28 30 28Z" fill="#9EA0A5"/>
<g clip-path="url(#clip1)">
<path d="M31.7071 15.4927C31.3166 15.8832 30.6835 15.8832 30.293 15.4927L28.0071 13.2072C27.6166 12.8167 26.9834 12.8168 26.5929 13.2073L26.1071 13.6931C25.7166 14.0836 25.7166 14.7168 26.1071 15.1073L30.2929 19.2931C30.6834 19.6836 31.3166 19.6836 31.7071 19.2931L42.293 8.7072C42.6835 8.31672 42.6835 7.68364 42.2931 7.2931L41.8072 6.80704C41.4167 6.41641 40.7834 6.41636 40.3929 6.80693L31.7071 15.4927Z" fill="#9EA0A5"/>
<path fill-rule="evenodd" clip-rule="evenodd" d="M30.9999 11.9572L30.1283 11.0857C28.5661 9.52382 26.0336 9.52393 24.4716 11.0859L23.9858 11.5718C22.4237 13.1339 22.4237 15.6665 23.9858 17.2286L28.1716 21.4144C29.7337 22.9765 32.2663 22.9765 33.8284 21.4144L44.4143 10.8285C45.9762 9.2666 45.9764 6.73428 44.4148 5.17211L43.9288 4.68605C42.3668 3.12354 39.8338 3.12334 38.2716 4.68561L30.9999 11.9572ZM30.2929 19.2931C30.6834 19.6836 31.3166 19.6836 31.7071 19.2931L42.293 8.7072C42.293 8.70723 42.293 8.70718 42.293 8.7072C42.6834 8.31672 42.6835 7.68362 42.2931 7.2931L41.8072 6.80704C41.4167 6.41641 40.7834 6.41636 40.3929 6.80693L31.7071 15.4927C31.5189 15.6809 31.2743 15.7784 31.0276 15.7852C31.0092 15.7857 30.9908 15.7857 30.9724 15.7852C30.7258 15.7784 30.4812 15.6809 30.293 15.4927L28.0072 13.2073C27.6166 12.8168 26.9834 12.8168 26.5929 13.2073L26.1071 13.6931C25.7166 14.0836 25.7166 14.7168 26.1071 15.1073L30.2929 19.2931Z" fill="white"/>
</g>
</g>
<defs>
<clipPath id="clip0">
<rect width="32" height="32" fill="white" transform="translate(14)"/>
</clipPath>
<clipPath id="clip1">
<rect width="24" height="24" fill="white" transform="translate(23 1)"/>
</clipPath>
</defs>
</svg>
