<svg width="23" height="20" viewBox="0 0 23 20" fill="none" xmlns="http://www.w3.org/2000/svg">
<path fill-rule="evenodd" clip-rule="evenodd" d="M7.9998 8.95724L7.12813 8.08571C5.566 6.52382 3.03351 6.52393 1.4715 8.08594L0.98566 8.57178C-0.576435 10.1339 -0.576439 12.6665 0.985659 14.2286L5.17145 18.4144C6.73355 19.9765 9.2662 19.9765 10.8283 18.4144L21.4142 7.82852C22.9761 6.2666 22.9763 3.73428 21.4146 2.17211L20.9287 1.68605C19.3667 0.123537 16.8337 0.123345 15.2714 1.68561L7.9998 8.95724ZM7.29277 16.2931C7.68329 16.6836 8.31646 16.6836 8.70698 16.2931L19.2929 5.7072C19.2929 5.70723 19.2929 5.70718 19.2929 5.7072C19.6833 5.31672 19.6834 4.68362 19.293 4.2931L18.8071 3.80704C18.4166 3.41641 17.7833 3.41636 17.3928 3.80693L8.70702 12.4927C8.51877 12.6809 8.27414 12.7784 8.02749 12.7852C8.00908 12.7857 7.99067 12.7857 7.97226 12.7852C7.72566 12.7784 7.48109 12.6809 7.29286 12.4927L5.00704 10.2073C4.6165 9.81678 3.98333 9.81675 3.59282 10.2073L3.10698 10.6931C2.71646 11.0836 2.71646 11.7168 3.10698 12.1073L7.29277 16.2931Z" fill="white"/>
</svg>
